<?xml version="1.0" standalone="no"?>
<!DOCTYPE svg PUBLIC "-//W3C//DTD SVG 20010904//EN"
 "http://www.w3.org/TR/2001/REC-SVG-20010904/DTD/svg10.dtd">
<svg version="1.0" xmlns="http://www.w3.org/2000/svg"
 width="3407.000000pt" height="2800.000000pt" viewBox="0 0 3407.000000 2800.000000"
 preserveAspectRatio="xMidYMid meet">
<metadata>
Created by potrace 1.16, written by Peter Selinger 2001-2019
</metadata>
<g transform="translate(0.000000,2800.000000) scale(0.100000,-0.100000)"
fill="#000000" stroke="none">
<path d="M17569 26879 c-384 -25 -741 -117 -978 -252 -316 -182 -501 -431
-578 -779 -27 -126 -25 -446 5 -583 11 -54 19 -101 17 -103 -2 -2 -88 -10
-192 -18 -1770 -132 -3656 -816 -5513 -1999 -774 -493 -1538 -1078 -2285
-1751 -367 -331 -947 -914 -1284 -1292 -1151 -1292 -2032 -2689 -2504 -3973
-129 -349 -235 -716 -296 -1024 -122 -612 -103 -1224 59 -1850 339 -1312 1316
-2537 2675 -3352 937 -562 1988 -892 3075 -964 254 -17 823 -6 1060 20 831 90
1555 306 2285 680 928 475 1772 1181 2500 2091 345 431 663 903 953 1411 l71
125 133 22 c493 82 1005 283 1423 559 717 473 1149 1096 1251 1808 19 131 22
447 7 567 l-9 66 60 13 c190 39 425 123 621 222 749 379 1240 1072 1346 1897
19 148 17 511 -5 655 -47 317 -157 620 -322 883 -289 462 -694 797 -1217 1006
-341 137 -615 190 -993 190 l-230 1 -44 94 c-56 118 -174 299 -272 416 -236
280 -566 520 -945 687 -878 385 -1973 379 -2850 -16 -296 -133 -605 -346 -812
-560 l-74 -77 -111 25 c-860 196 -1800 42 -2535 -414 -330 -205 -639 -499
-839 -798 -98 -146 -186 -313 -251 -478 -11 -29 -18 -32 -99 -49 -141 -29
-347 -92 -497 -152 -1388 -552 -2242 -2004 -1990 -3378 39 -211 121 -469 197
-618 l19 -38 -28 -22 c-449 -351 -786 -846 -928 -1364 -100 -364 -105 -772
-16 -1139 66 -266 183 -530 339 -764 123 -184 203 -282 357 -435 543 -544
1297 -893 2165 -1000 205 -26 806 -32 1008 -11 811 86 1543 424 2064 952 213
215 353 410 484 671 249 495 308 1030 169 1545 -41 151 -116 338 -185 462
l-50 89 56 101 c111 199 239 362 435 551 179 173 403 341 600 449 l66 36 48
-71 c81 -118 195 -194 338 -223 95 -20 119 -20 214 0 142 29 258 105 336 220
74 109 91 167 91 309 0 142 -17 200 -91 309 -78 115 -194 191 -336 220 -95 20
-119 20 -214 0 -142 -29 -258 -105 -336 -220 -59 -86 -88 -167 -94 -265 l-6
-76 -36 -13 c-76 -26 -301 -139 -415 -209 -311 -188 -574 -426 -785 -708 l-83
-111 -112 112 c-267 269 -597 477 -961 606 -110 38 -232 73 -219 61 5 -4 47
-37 94 -71 216 -162 448 -378 593 -553 249 -299 422 -645 487 -972 28 -137 38
-427 21 -560 -103 -773 -727 -1421 -1680 -1746 -291 -99 -663 -173 -976 -195
-115 -7 -371 9 -555 36 -546 80 -1065 297 -1446 606 -125 101 -325 310 -406
424 -352 495 -425 1074 -203 1599 98 231 216 402 420 607 160 162 260 241 475
379 l135 87 90 -7 c291 -20 544 -86 790 -205 119 -58 369 -200 392 -223 10
-10 8 -26 -8 -76 -106 -344 126 -686 481 -708 164 -10 311 48 422 166 108 115
148 216 148 376 0 153 -50 275 -155 380 -162 162 -421 204 -625 100 l-50 -25
-67 43 c-125 80 -287 170 -428 238 -247 119 -477 183 -775 214 -85 9 -168 19
-185 21 -25 4 -41 20 -95 101 -265 395 -365 853 -294 1343 113 778 644 1487
1388 1851 132 64 407 169 444 169 5 0 13 -35 17 -77 19 -221 89 -465 194 -678
186 -378 461 -670 844 -897 277 -164 582 -269 947 -325 155 -23 557 -24 710 0
157 24 314 59 298 67 -7 4 -65 12 -129 18 -408 41 -801 156 -1138 333 -218
115 -386 236 -556 401 l-110 107 130 128 c197 195 387 313 636 397 126 42 291
75 417 83 l92 6 0 -44 c0 -113 52 -228 148 -330 294 -314 828 -163 917 258 19
86 18 140 0 228 -41 196 -197 359 -390 410 -76 19 -204 19 -280 0 -143 -38
-275 -145 -336 -273 l-34 -71 -100 5 c-182 11 -434 -24 -627 -86 -128 -42
-358 -157 -470 -237 -92 -66 -229 -179 -259 -216 -19 -24 -23 -19 -82 98 -88
175 -132 312 -157 484 -16 107 -7 379 15 481 140 639 693 1182 1465 1440 265
89 475 121 782 121 317 0 566 -42 858 -142 264 -91 269 -93 273 -88 2 2 48 69
102 148 119 174 192 261 305 359 305 266 748 455 1245 529 186 28 640 25 830
-5 427 -67 800 -212 1097 -427 102 -74 279 -248 340 -335 25 -36 64 -98 86
-139 l40 -73 -117 -60 c-132 -67 -297 -175 -418 -273 l-83 -66 -117 44 c-140
54 -324 100 -483 123 -172 25 -482 15 -646 -20 -142 -30 -297 -82 -404 -136
l-76 -38 -50 33 c-146 98 -357 113 -524 38 -80 -36 -163 -106 -213 -179 -68
-99 -90 -168 -95 -294 -4 -94 -1 -114 22 -184 126 -376 581 -498 879 -236 142
125 210 352 159 535 -10 39 -22 77 -26 86 -6 13 8 20 72 37 254 70 560 86 837
43 124 -18 412 -84 424 -97 2 -2 -10 -23 -27 -47 -260 -344 -399 -701 -433
-1108 -11 -131 -1 -347 19 -423 8 -28 9 -26 21 30 104 465 334 868 666 1165
84 75 203 169 215 169 8 0 245 -483 298 -610 63 -148 125 -339 171 -520 23
-91 44 -172 47 -181 3 -11 -14 -27 -55 -52 -154 -96 -251 -273 -251 -459 0
-151 49 -267 160 -379 113 -114 221 -159 380 -159 159 0 267 45 380 159 111
112 160 228 160 379 0 148 -53 275 -160 383 -69 70 -176 131 -255 145 -22 3
-46 10 -53 14 -8 4 -36 94 -63 200 -90 357 -161 542 -375 978 -68 140 -124
255 -124 256 0 7 159 75 220 95 105 34 495 111 623 124 291 27 676 -52 976
-201 220 -110 366 -217 541 -398 271 -281 435 -605 502 -989 46 -271 -5 -577
-148 -875 -203 -423 -577 -750 -1041 -910 -220 -76 -403 -102 -825 -116 -111
-4 -188 -10 -188 -16 0 -5 27 -103 61 -216 120 -411 134 -485 134 -742 0 -153
-4 -213 -19 -280 -157 -719 -838 -1364 -1709 -1619 -237 -69 -455 -106 -704
-117 l-143 -7 0 -38 c0 -32 -20 -67 -128 -226 -424 -624 -811 -1100 -1282
-1576 -686 -696 -1337 -1180 -2100 -1560 -731 -365 -1381 -554 -2170 -634
-232 -23 -734 -23 -970 1 -1102 109 -2068 504 -2890 1185 -148 122 -444 413
-570 561 -594 694 -944 1483 -1046 2355 -22 185 -25 661 -6 835 130 1160 725
2460 1701 3714 324 417 604 730 1050 1176 537 536 962 905 1546 1340 1820
1356 3852 2219 5805 2464 415 53 561 61 1090 61 519 0 672 -8 1035 -56 1122
-148 2136 -521 3050 -1124 367 -241 612 -441 926 -754 302 -301 480 -518 691
-841 929 -1418 1130 -3284 587 -5453 -457 -1826 -1461 -3830 -2747 -5486 -389
-501 -765 -925 -1164 -1317 -325 -317 -577 -533 -958 -819 -1566 -1176 -3246
-2944 -4716 -4965 -339 -466 -813 -1160 -967 -1415 l-48 -80 213 215 c273 275
415 430 669 726 624 726 1322 1324 2324 1989 1024 679 2227 1316 3615 1912
1730 744 3066 1181 4210 1377 292 50 478 74 774 96 376 29 443 41 620 107 419
157 788 357 1108 600 520 393 937 923 1151 1463 25 63 49 127 52 143 l7 27
-75 0 c-108 0 -286 25 -422 60 -337 85 -598 240 -756 448 -98 129 -190 344
-224 524 -9 45 -18 94 -21 107 -4 18 -2 22 10 18 34 -13 287 -78 397 -102 156
-33 381 -70 559 -92 208 -25 748 -25 945 0 313 40 743 148 877 219 308 164
709 1118 1076 2563 l59 230 85 7 c417 32 668 325 695 813 6 113 8 123 39 171
136 212 194 552 148 861 -51 348 -205 595 -395 635 -52 11 -67 9 -245 -35
-180 -44 -486 -107 -519 -107 -8 0 -388 243 -843 540 l-827 540 -111 122
c-132 146 -305 314 -441 428 -335 281 -787 578 -1213 798 l-167 86 45 75 c65
110 145 280 187 401 220 634 120 1186 -293 1622 -289 303 -714 587 -1747 1168
-1102 619 -1477 848 -1860 1137 -303 228 -479 396 -677 644 -270 339 -526 509
-853 566 -121 21 -362 13 -493 -16 -168 -37 -349 -108 -493 -191 -37 -22 -70
-40 -74 -40 -3 0 16 26 44 58 82 95 271 353 357 489 196 309 318 579 381 843
36 152 42 351 15 481 -96 466 -548 744 -1352 833 -292 33 -615 42 -881 25z
m-2094 -6508 c207 -98 259 -358 105 -525 -123 -133 -330 -141 -463 -17 -102
94 -135 236 -86 366 28 74 108 155 181 183 83 32 187 30 263 -7z m-2540 -1250
c69 -32 137 -100 168 -169 16 -36 22 -67 22 -127 0 -71 -4 -88 -33 -147 -36
-73 -86 -123 -161 -160 -37 -18 -63 -23 -136 -23 -94 0 -132 13 -207 68 -45
33 -96 117 -114 186 -38 153 50 323 200 380 81 31 186 28 261 -8z m5588 -585
c206 -100 250 -376 86 -536 -68 -66 -119 -85 -229 -85 -79 0 -103 4 -142 23
-196 97 -250 362 -105 519 76 83 153 115 264 109 52 -2 86 -10 126 -30z
m-3746 -2086 c248 -122 245 -469 -5 -592 -57 -28 -76 -33 -142 -33 -66 0 -85
5 -142 33 -120 59 -188 166 -188 297 0 248 253 404 477 295z m-4443 -1320
c151 -57 241 -227 202 -381 -42 -163 -184 -268 -345 -257 -122 9 -219 75 -273
186 -29 59 -33 76 -33 147 0 96 21 150 87 221 63 68 143 104 235 104 48 0 90
-7 127 -20z"/>
</g>
</svg>
