<?xml version="1.0" standalone="no"?>
<!DOCTYPE svg PUBLIC "-//W3C//DTD SVG 20010904//EN"
 "http://www.w3.org/TR/2001/REC-SVG-20010904/DTD/svg10.dtd">
<svg version="1.0" xmlns="http://www.w3.org/2000/svg"
 width="4215.000000pt" height="644.000000pt" viewBox="0 0 4215.000000 644.000000"
 preserveAspectRatio="xMidYMid meet">
<metadata>
Created by potrace 1.16, written by Peter Selinger 2001-2019
</metadata>
<g transform="translate(0.000000,644.000000) scale(0.100000,-0.100000)"
fill="#000000" stroke="none">
<path d="M80 3220 l0 -3210 21025 0 21025 0 0 3210 0 3210 -21025 0 -21025 0
0 -3210z m18531 1110 c199 -41 394 -132 543 -254 l29 -24 -123 -204 c-68 -111
-127 -207 -131 -212 -5 -6 -29 8 -58 32 -81 69 -171 119 -271 153 -78 26 -115
33 -210 36 -236 10 -412 -60 -580 -227 -168 -168 -237 -344 -227 -580 8 -199
79 -362 222 -505 121 -122 241 -187 405 -221 98 -19 248 -15 345 10 96 26 233
98 302 161 l62 56 33 -53 c19 -29 78 -126 132 -216 l98 -162 -23 -20 c-54 -46
-191 -132 -260 -164 -185 -84 -344 -119 -549 -118 -614 1 -1140 447 -1245
1056 -31 180 -14 423 41 596 34 106 124 282 186 365 73 97 198 221 288 284
100 70 244 142 360 179 83 26 134 37 275 56 62 9 262 -5 356 -24z m-6670 4
c456 -78 839 -408 987 -849 151 -452 31 -958 -308 -1295 -219 -219 -478 -341
-785 -370 -444 -41 -896 171 -1152 541 -304 441 -305 1003 -1 1447 72 105 224
255 329 325 151 100 326 171 494 201 111 20 320 20 436 0z m-9432 -816 l466
-797 3 800 2 799 245 0 245 0 0 -1225 0 -1225 -263 0 -263 0 -469 802 -470
801 -3 -801 -2 -802 -245 0 -245 0 0 1225 0 1225 266 -2 266 -3 467 -797z
m3101 557 l0 -245 -595 0 -595 0 0 -245 0 -245 400 0 400 0 0 -245 0 -245
-400 0 -400 0 0 -245 0 -245 595 0 595 0 0 -245 0 -245 -845 0 -845 0 0 1225
0 1225 845 0 845 0 0 -245z m802 -537 l3 -783 23 -59 c86 -227 309 -364 535
-327 139 23 256 96 330 208 88 133 82 66 85 956 l3 787 250 0 250 0 -4 -802
c-3 -693 -6 -812 -20 -868 -78 -316 -262 -550 -540 -685 -151 -73 -223 -89
-422 -89 -186 -1 -247 10 -397 74 -147 63 -309 193 -404 326 -57 79 -126 227
-155 329 -23 80 -23 84 -26 898 l-4 817 245 0 245 0 3 -782z m3141 749 c287
-89 504 -276 627 -540 66 -141 84 -228 84 -407 0 -130 -4 -169 -23 -240 -28
-107 -104 -267 -164 -346 -53 -69 -179 -192 -226 -220 -17 -10 -31 -23 -31
-29 0 -6 59 -149 130 -318 72 -168 130 -309 130 -312 0 -3 -118 -4 -262 -3
l-262 3 -105 243 -104 242 -274 0 -273 0 0 -245 0 -245 -245 0 -245 0 0 1226
0 1225 578 -3 577 -4 88 -27z m5447 -212 l0 -245 -365 0 -365 0 0 -980 0 -980
-250 0 -250 0 0 980 0 980 -365 0 -365 0 0 245 0 245 980 0 980 0 0 -245z
m1940 0 l0 -245 -595 0 -595 0 0 -245 0 -245 405 0 405 0 0 -245 0 -245 -405
0 -405 0 0 -245 0 -245 595 0 595 0 0 -245 0 -245 -840 0 -840 0 0 1225 0
1225 840 0 840 0 0 -245z m3020 -245 l0 -490 485 0 485 0 0 490 0 490 250 0
250 0 0 -1225 0 -1225 -250 0 -250 0 0 490 0 490 -485 0 -485 0 0 -490 0 -490
-250 0 -250 0 0 1225 0 1225 250 0 250 0 0 -490z m5522 471 c245 -63 439 -242
525 -483 20 -58 27 -98 30 -195 5 -112 3 -130 -20 -205 -35 -110 -88 -198
-164 -269 l-62 -58 34 -21 c74 -46 168 -196 200 -321 26 -97 16 -279 -19 -379
-85 -240 -278 -418 -523 -480 -72 -19 -114 -20 -740 -20 l-663 0 0 1225 0
1225 663 0 c623 0 668 -1 739 -19z m2618 -226 l0 -245 -595 0 -595 0 0 -245 0
-245 400 0 400 0 0 -245 0 -245 -400 0 -400 0 0 -245 0 -245 595 0 595 0 0
-245 0 -245 -845 0 -845 0 0 1225 0 1225 845 0 845 0 0 -245z m1565 217 c394
-110 683 -446 727 -846 39 -349 -119 -702 -404 -905 -26 -19 -46 -37 -44 -40
4 -6 254 -593 263 -618 4 -10 -52 -13 -258 -13 l-264 0 -105 245 -105 245
-272 0 -273 0 0 -245 0 -245 -250 0 -250 0 0 1225 0 1226 578 -3 c562 -4 579
-4 657 -26z m1547 -578 l3 -607 450 606 450 606 284 1 c225 0 281 -3 274 -12
-6 -7 -180 -240 -388 -517 l-378 -504 36 -66 c20 -36 193 -354 386 -706 l349
-640 -271 -3 c-150 -1 -277 0 -282 2 -6 2 -130 223 -275 490 -145 267 -266
486 -269 486 -3 0 -88 -112 -188 -247 l-183 -247 0 -243 0 -243 -245 0 -245 0
0 1225 0 1225 245 0 245 0 2 -606z m3378 361 l0 -245 -595 0 -595 0 0 -245 0
-245 400 0 400 0 0 -245 0 -245 -400 0 -400 0 0 -245 0 -245 595 0 595 0 0
-245 0 -245 -845 0 -845 0 0 1225 0 1225 845 0 845 0 0 -245z m830 -735 l0
-980 615 0 615 0 0 -245 0 -245 -860 0 -860 0 0 1225 0 1225 245 0 245 0 0
-980z m3160 735 l0 -245 -592 -2 -593 -3 -3 -242 -2 -243 405 0 405 0 0 -245
0 -245 -402 -2 -403 -3 0 -240 0 -240 593 -3 592 -2 0 -245 0 -245 -840 0
-840 0 0 1225 0 1225 840 0 840 0 0 -245z m710 -137 c0 -425 6 -474 61 -578
43 -81 92 -136 163 -182 288 -186 675 -24 745 310 7 33 11 197 11 442 l0 390
245 0 245 0 0 -422 c0 -376 -2 -433 -19 -515 -21 -98 -68 -219 -123 -310 -113
-189 -327 -358 -530 -420 l-58 -17 0 -383 0 -383 -250 0 -250 0 0 383 0 383
-57 18 c-322 100 -584 392 -654 729 -17 82 -19 139 -19 515 l0 422 245 0 245
0 0 -382z m-16265 -208 c111 -29 269 -108 357 -178 158 -126 274 -305 330
-512 19 -72 23 -109 23 -250 0 -179 -11 -236 -75 -377 l-29 -63 -380 0 c-236
0 -381 4 -383 10 -2 6 -19 4 -43 -5 -85 -30 -234 -11 -323 42 -125 73 -202
216 -202 378 0 237 138 402 363 434 64 9 151 0 186 -19 20 -10 21 -8 21 30 l0
40 160 0 160 0 0 -315 0 -315 104 0 105 0 7 57 c10 84 -2 221 -26 294 -65 195
-225 355 -420 419 -93 31 -236 37 -334 16 -235 -53 -430 -241 -491 -476 -23
-85 -23 -235 -1 -319 93 -352 454 -561 802 -465 20 5 24 -4 60 -151 32 -130
36 -157 24 -165 -63 -39 -354 -46 -482 -12 -184 50 -332 135 -463 267 -132
131 -217 278 -267 463 -29 105 -31 331 -4 447 90 391 364 657 762 740 102 21
354 13 459 -15z"/>
<path d="M11581 3849 c-304 -59 -554 -302 -617 -598 -18 -86 -17 -248 1 -336
29 -138 119 -291 233 -396 419 -386 1076 -216 1265 329 24 71 31 108 34 202
10 236 -60 413 -227 580 -118 118 -235 183 -388 215 -73 16 -231 18 -301 4z"/>
<path d="M8800 3340 l0 -490 264 0 c145 0 287 5 317 10 122 23 249 111 320
221 153 239 55 575 -205 698 -91 44 -154 51 -438 51 l-258 0 0 -490z"/>
<path d="M24580 3585 l0 -246 398 3 c385 3 398 4 437 25 88 47 129 117 129
218 0 101 -41 171 -129 218 -39 21 -52 22 -437 25 l-398 3 0 -246z"/>
<path d="M24580 2604 l0 -245 398 3 c385 3 398 4 437 25 88 47 129 117 130
218 0 56 -5 79 -25 115 -33 58 -96 105 -160 119 -32 7 -190 11 -415 11 l-365
0 0 -246z"/>
<path d="M28930 3341 l0 -491 266 0 c302 0 365 9 461 66 90 54 149 118 196
213 l42 85 0 125 c0 124 -1 127 -36 201 -61 127 -155 214 -285 262 -55 20 -81
22 -351 26 l-293 4 0 -491z"/>
<path d="M22659 2872 c-56 -50 -51 -159 9 -198 33 -22 110 -24 145 -5 51 27
72 113 42 171 -23 44 -53 60 -112 60 -43 0 -58 -5 -84 -28z"/>
</g>
</svg>
