<?xml version="1.0" standalone="no"?>
<!DOCTYPE svg PUBLIC "-//W3C//DTD SVG 20010904//EN"
 "http://www.w3.org/TR/2001/REC-SVG-20010904/DTD/svg10.dtd">
<svg version="1.0" xmlns="http://www.w3.org/2000/svg"
 width="4215.000000pt" height="3442.000000pt" viewBox="0 0 4215.000000 3442.000000"
 preserveAspectRatio="xMidYMid meet">
<metadata>
Created by potrace 1.16, written by Peter Selinger 2001-2019
</metadata>
<g transform="translate(0.000000,3442.000000) scale(0.100000,-0.100000)"
fill="#000000" stroke="none">
<path d="M11107 26120 c-1705 -1744 -2884 -3651 -3303 -5345 -102 -413 -128
-625 -128 -1040 -1 -322 9 -447 55 -715 269 -1578 1480 -3076 3179 -3934 836
-422 1679 -657 2608 -727 211 -16 899 -6 1092 15 580 64 1085 181 1600 373
1662 618 3100 1946 4175 3853 l48 85 136 22 c906 150 1775 668 2258 1349 217
305 354 640 409 999 19 121 24 407 11 562 l-8 91 43 7 c64 11 270 71 383 112
229 84 510 245 711 409 108 87 290 270 370 369 69 87 190 268 239 358 l37 67
-429 0 -428 0 -110 -108 c-229 -226 -475 -372 -785 -465 -165 -50 -277 -67
-515 -78 -115 -6 -258 -13 -316 -17 l-106 -7 79 -274 c103 -359 120 -456 122
-686 1 -259 -35 -414 -154 -660 -210 -433 -609 -813 -1115 -1060 -206 -102
-367 -160 -585 -214 -199 -49 -320 -67 -547 -83 l-173 -12 0 -35 c0 -29 -24
-70 -127 -221 -616 -900 -1234 -1598 -1931 -2181 -1142 -955 -2401 -1498
-3707 -1599 -192 -15 -619 -15 -800 -1 -1282 104 -2425 621 -3295 1491 -603
602 -1013 1317 -1200 2094 -165 683 -157 1315 27 2041 443 1756 1867 3725
3808 5264 72 57 132 105 134 107 2 2 -347 4 -776 4 l-781 0 -205 -210z"/>
<path d="M25646 26318 c4 -7 24 -38 44 -68 199 -299 411 -728 546 -1108 626
-1760 377 -4038 -707 -6484 -905 -2041 -2357 -4049 -3759 -5199 -58 -47 -211
-166 -340 -264 -278 -211 -469 -362 -680 -539 -1483 -1243 -3002 -2936 -4358
-4860 -310 -439 -716 -1058 -710 -1078 7 -21 640 647 837 882 377 452 797 859
1306 1269 1375 1108 3264 2142 5620 3076 1634 648 2948 1002 4005 1080 394 29
481 44 663 112 929 349 1639 930 2082 1706 76 133 158 311 203 438 l30 86
-117 7 c-264 15 -539 84 -743 187 -71 36 -209 129 -271 181 -121 105 -240 297
-305 495 -33 97 -70 269 -60 278 3 3 57 -8 119 -24 260 -69 543 -124 814 -158
205 -26 804 -26 995 0 192 26 409 71 584 122 203 58 255 79 319 126 256 190
575 913 888 2014 51 179 175 644 193 726 5 25 8 26 103 32 398 22 660 330 680
797 4 108 8 130 28 161 118 183 175 402 175 668 0 314 -84 587 -228 743 -101
109 -203 138 -345 99 -112 -31 -365 -87 -496 -110 l-114 -21 -842 550 c-801
524 -845 554 -896 617 -77 95 -304 321 -439 437 -342 293 -804 599 -1230 816
-99 50 -180 92 -180 94 0 2 27 50 60 107 138 238 237 534 271 803 16 130 6
372 -19 491 -51 238 -149 433 -316 633 l-78 92 -1669 0 c-1333 0 -1669 -3
-1663 -12z"/>
<path d="M11205 23018 c-8 -25 -43 -214 -57 -308 -20 -148 -17 -584 6 -735 34
-224 104 -469 192 -668 19 -44 33 -83 32 -87 -2 -4 -37 -35 -78 -70 -514 -433
-831 -978 -927 -1591 -24 -158 -24 -490 1 -649 94 -609 400 -1139 911 -1579
514 -442 1200 -736 1944 -831 196 -26 619 -44 826 -36 706 26 1376 250 1924
643 292 209 590 525 759 805 157 259 259 524 313 813 30 155 37 483 15 652
-32 245 -113 496 -233 724 l-56 107 53 93 c214 377 554 712 981 968 47 28 89
51 92 51 4 0 22 -24 40 -52 49 -77 146 -162 230 -202 86 -41 154 -56 247 -56
159 0 286 53 400 169 115 115 164 235 164 396 0 161 -49 281 -164 396 -114
116 -241 169 -400 169 -159 0 -286 -53 -400 -169 -106 -106 -150 -204 -166
-363 l-7 -69 -41 -16 c-87 -35 -336 -165 -434 -227 -285 -181 -537 -414 -736
-679 l-81 -109 -75 80 c-279 298 -676 541 -1098 672 -56 17 -109 30 -118 28
-9 -2 18 -28 73 -68 937 -691 1325 -1594 1041 -2425 -88 -259 -231 -484 -448
-709 -484 -499 -1202 -810 -2055 -890 -340 -31 -788 29 -1180 159 -897 298
-1514 939 -1610 1673 -68 516 121 1020 540 1437 139 140 271 242 468 367 l141
89 61 -6 c445 -44 692 -127 1086 -362 l127 -76 -20 -56 c-28 -79 -35 -228 -14
-308 63 -247 274 -413 525 -413 160 0 282 50 392 161 339 340 95 924 -386 923
-97 -1 -148 -12 -236 -51 l-57 -25 -143 87 c-311 187 -607 314 -854 364 -104
21 -273 44 -409 57 l-78 7 -70 106 c-133 199 -224 416 -275 650 -20 95 -26
153 -30 326 -6 243 7 363 62 584 19 75 35 137 35 139 0 1 -167 2 -370 2 -288
0 -372 -3 -375 -12z m7319 -1154 c64 -22 147 -100 177 -166 17 -39 23 -71 23
-123 0 -94 -29 -159 -100 -224 -62 -57 -123 -81 -204 -81 -81 0 -142 24 -204
81 -71 65 -100 130 -100 224 0 52 6 84 23 123 29 63 113 144 173 165 57 20
153 21 212 1z m-4392 -1321 c203 -91 262 -352 117 -517 -25 -28 -66 -58 -107
-78 -58 -29 -76 -33 -142 -32 -155 2 -276 100 -316 256 -27 104 6 218 86 298
38 38 97 74 150 91 43 14 161 4 212 -18z"/>
<path d="M10606 4048 c-139 -249 -187 -563 -131 -856 96 -504 517 -918 1025
-1008 110 -19 339 -19 450 0 387 69 736 330 909 681 96 195 135 361 134 575 0
212 -42 387 -134 573 l-49 97 -352 0 -352 0 45 -28 c112 -72 209 -187 273
-323 56 -117 70 -186 70 -329 0 -114 -3 -133 -32 -219 -76 -220 -219 -382
-424 -475 -100 -46 -197 -66 -321 -66 -132 0 -227 24 -350 87 -75 38 -109 64
-182 138 -123 124 -188 239 -220 393 -62 290 75 622 323 787 23 15 42 29 42
31 0 2 -155 4 -345 4 l-344 0 -35 -62z"/>
<path d="M17226 4023 c-97 -194 -138 -363 -139 -573 -1 -162 14 -260 59 -400
65 -202 157 -353 309 -505 252 -253 547 -376 900 -376 281 0 499 67 728 224
49 33 91 67 94 74 4 10 -218 398 -253 442 -2 2 -30 -21 -62 -50 -77 -70 -152
-114 -259 -152 -75 -26 -106 -31 -214 -35 -105 -4 -140 -1 -209 17 -482 122
-731 632 -524 1070 63 135 142 230 258 310 l59 41 -351 0 -352 0 -44 -87z"/>
<path d="M18791 4079 c24 -17 63 -50 86 -72 24 -22 44 -39 46 -36 2 2 22 34
45 72 l42 67 -131 0 -132 0 44 -31z"/>
<path d="M1510 3160 l0 -940 250 0 250 0 2 790 3 791 462 -788 461 -788 271
-3 271 -2 0 940 0 940 -250 0 -250 0 -2 -509 -3 -508 -296 506 -296 506 -437
3 -436 2 0 -940z"/>
<path d="M3920 3160 l0 -940 845 0 845 0 0 250 0 250 -595 0 -595 0 0 240 0
240 405 0 405 0 0 250 0 250 -405 0 -405 0 0 200 0 200 -250 0 -250 0 0 -940z"/>
<path d="M5922 3563 c4 -616 3 -605 98 -798 96 -194 251 -349 445 -445 158
-78 237 -95 440 -94 143 0 183 4 250 22 319 88 576 327 682 637 47 137 53 222
53 738 l0 477 -250 0 -250 0 0 -462 c0 -514 -4 -551 -62 -661 -18 -34 -58 -87
-89 -117 -239 -236 -629 -163 -777 147 l-37 78 -3 508 -3 507 -250 0 -250 0 3
-537z"/>
<path d="M8300 3160 l0 -940 250 0 250 0 0 245 0 245 273 0 272 0 105 -245
105 -245 268 0 267 0 -13 33 c-8 17 -63 147 -122 287 -59 140 -114 269 -121
286 l-13 31 84 66 c186 148 317 373 355 610 26 160 3 380 -56 527 l-16 40
-317 0 -316 0 49 -42 c64 -55 121 -145 148 -231 17 -57 20 -86 16 -164 -5 -85
-9 -102 -46 -177 -53 -106 -130 -182 -239 -234 l-78 -37 -302 -3 -303 -3 0
445 0 446 -250 0 -250 0 0 -940z"/>
<path d="M13770 3160 l0 -940 250 0 250 0 0 940 0 940 -250 0 -250 0 0 -940z"/>
<path d="M15250 3160 l0 -940 845 0 845 0 0 250 0 250 -595 0 -595 0 0 240 0
240 405 0 405 0 0 250 0 250 -405 0 -405 0 0 200 0 200 -250 0 -250 0 0 -940z"/>
<path d="M19460 3160 l0 -940 250 0 250 0 0 490 0 490 485 0 485 0 0 -490 0
-490 250 0 250 0 0 940 0 940 -250 0 -250 0 0 -200 0 -200 -485 0 -485 0 0
200 0 200 -250 0 -250 0 0 -940z"/>
<path d="M24080 3160 l0 -941 688 3 687 3 80 27 c117 40 199 92 296 188 72 71
93 101 132 180 64 130 81 201 80 335 0 91 -5 124 -27 192 -32 98 -110 220
-171 266 l-43 33 57 55 c71 68 121 150 157 254 23 67 28 97 28 185 1 58 -3
117 -7 133 l-7 27 -270 0 -269 0 23 -45 c35 -65 41 -114 21 -182 -20 -70 -87
-142 -151 -161 -30 -9 -150 -12 -423 -12 l-381 0 0 200 0 200 -250 0 -250 0 0
-940z m1333 11 c61 -30 112 -96 128 -165 23 -105 -34 -215 -136 -262 -50 -24
-53 -24 -437 -24 l-388 0 0 240 0 241 393 -3 c389 -3 392 -3 440 -27z"/>
<path d="M26410 3160 l0 -940 845 0 845 0 0 250 0 250 -595 0 -595 0 0 240 0
240 400 0 400 0 0 250 0 250 -400 0 -400 0 0 200 0 200 -250 0 -250 0 0 -940z"/>
<path d="M28430 3160 l0 -940 250 0 250 0 0 245 0 245 272 -2 272 -3 105 -242
104 -243 268 0 268 0 -33 78 c-155 362 -238 563 -235 565 2 2 27 20 55 40 129
93 262 265 325 422 53 133 72 248 66 405 -5 135 -17 200 -58 313 l-21 57 -320
0 -320 0 49 -39 c128 -101 198 -298 164 -462 -37 -177 -181 -329 -355 -375
-37 -10 -126 -14 -328 -14 l-278 0 0 445 0 445 -250 0 -250 0 0 -940z"/>
<path d="M30710 3160 l0 -940 250 0 250 0 0 243 1 242 186 248 185 248 195
-358 c107 -197 227 -418 266 -490 l72 -133 284 0 c262 0 283 1 277 17 -4 9
-177 329 -385 710 l-379 693 169 225 c93 123 169 227 169 230 0 3 -127 5 -282
5 l-283 0 -235 -316 -235 -315 -3 315 -2 316 -250 0 -250 0 0 -940z"/>
<path d="M32900 3160 l0 -940 845 0 845 0 0 250 0 250 -595 0 -595 0 0 240 0
240 405 0 405 0 0 250 0 250 -405 0 -405 0 0 200 0 200 -250 0 -250 0 0 -940z"/>
<path d="M34920 3160 l0 -940 865 0 865 0 0 250 0 250 -615 0 -615 0 0 690 0
690 -250 0 -250 0 0 -940z"/>
<path d="M36890 3160 l0 -940 845 0 845 0 0 250 0 250 -590 0 -590 0 0 240 0
240 400 0 400 0 0 250 0 250 -400 0 -400 0 0 200 0 200 -255 0 -255 0 0 -940z"/>
<path d="M38800 3955 c0 -225 37 -365 141 -534 121 -196 348 -373 542 -422
l47 -11 0 -384 0 -384 250 0 250 0 0 384 0 384 30 6 c118 23 315 142 426 258
199 206 283 434 284 771 l0 77 -250 0 -250 0 0 -92 c0 -121 -20 -212 -66 -298
-91 -174 -300 -281 -488 -251 -85 14 -194 64 -255 117 -58 51 -117 142 -141
222 -15 49 -20 93 -20 183 l0 119 -250 0 -250 0 0 -145z"/>
<path d="M21885 3600 c-136 -268 -139 -623 -9 -883 137 -272 378 -469 660
-539 138 -34 430 -28 492 11 8 5 1 51 -27 164 -21 87 -40 159 -42 161 -2 3
-33 -2 -69 -11 -85 -20 -232 -13 -320 16 -188 60 -342 211 -418 409 -24 60
-26 81 -27 202 0 122 3 142 27 208 37 101 82 174 154 249 l62 63 -229 0 -229
0 -25 -50z"/>
<path d="M23175 3630 c18 -20 17 -20 -143 -20 l-162 0 0 -34 0 -34 -47 14
c-59 18 -153 18 -219 0 -123 -32 -213 -108 -266 -223 -26 -56 -32 -81 -36
-165 -7 -156 25 -262 108 -352 94 -102 279 -152 413 -112 26 8 47 10 47 5 0
-5 162 -9 384 -9 l383 0 31 73 c44 106 61 171 72 271 18 175 -19 386 -95 536
l-35 70 -227 0 c-225 0 -226 0 -208 -20z m165 -215 c51 -104 75 -223 67 -328
-4 -43 -9 -82 -12 -88 -4 -5 -49 -9 -101 -9 l-94 0 0 308 1 307 50 -55 c28
-30 68 -91 89 -135z m-523 -185 c50 -30 66 -123 30 -170 -60 -79 -191 -61
-218 30 -26 86 27 160 116 160 22 0 54 -9 72 -20z"/>
</g>
</svg>
