<?xml version="1.0" standalone="no"?>
<!DOCTYPE svg PUBLIC "-//W3C//DTD SVG 20010904//EN"
 "http://www.w3.org/TR/2001/REC-SVG-20010904/DTD/svg10.dtd">
<svg version="1.0" xmlns="http://www.w3.org/2000/svg"
 width="4215.000000pt" height="644.000000pt" viewBox="0 0 4215.000000 644.000000"
 preserveAspectRatio="xMidYMid meet">
<metadata>
Created by potrace 1.16, written by Peter Selinger 2001-2019
</metadata>
<g transform="translate(0.000000,644.000000) scale(0.100000,-0.100000)"
fill="#000000" stroke="none">
<path d="M11573 4340 c-555 -70 -1004 -497 -1098 -1044 -19 -113 -19 -318 0
-429 76 -436 378 -805 788 -966 312 -122 667 -114 972 19 388 171 671 539 741
965 19 120 15 340 -10 453 -55 252 -164 451 -345 633 -190 190 -394 300 -654
354 -97 19 -297 27 -394 15z m305 -496 c365 -75 622 -391 622 -764 0 -336
-211 -627 -533 -735 -369 -123 -769 47 -942 400 -56 114 -77 204 -78 330 -2
205 68 384 206 532 190 203 461 291 725 237z"/>
<path d="M18175 4339 c-426 -66 -778 -331 -967 -725 -160 -335 -155 -760 13
-1096 121 -243 349 -467 591 -581 182 -86 340 -120 548 -120 299 0 563 93 798
281 l24 18 -128 210 c-70 115 -129 211 -131 213 -2 3 -18 -9 -36 -25 -123
-115 -272 -183 -444 -204 -310 -38 -630 134 -776 417 -64 124 -87 218 -87 353
0 378 259 690 634 766 94 19 246 15 341 -10 96 -26 233 -98 302 -161 l62 -56
15 23 c8 13 66 108 130 213 133 219 133 193 1 280 -143 95 -281 153 -450 191
-84 18 -354 27 -440 13z"/>
<path d="M1510 3095 l0 -1225 245 0 245 0 2 802 3 801 469 -801 470 -802 263
0 263 0 0 1225 0 1225 -245 0 -245 0 0 -807 0 -807 -472 807 -472 807 -263 0
-263 0 0 -1225z"/>
<path d="M3930 3095 l0 -1225 840 0 840 0 -2 243 -3 242 -592 3 -593 2 0 245
0 245 400 0 400 0 0 245 0 245 -400 0 -400 0 0 245 0 245 595 0 595 0 -2 243
-3 242 -837 3 -838 2 0 -1225z"/>
<path d="M5924 4306 c-3 -7 -3 -373 -1 -812 3 -789 3 -800 25 -884 92 -346
352 -612 698 -712 70 -20 101 -23 259 -22 167 0 186 2 268 27 331 102 570 341
674 674 l28 88 3 828 3 827 -246 0 -245 0 0 -773 c0 -843 2 -815 -57 -932 -33
-64 -134 -165 -198 -198 -167 -84 -355 -76 -503 24 -107 70 -188 193 -212 318
-6 34 -10 337 -10 807 l0 754 -240 0 c-193 0 -242 -3 -246 -14z"/>
<path d="M8310 3096 l0 -1226 245 0 245 0 0 245 0 245 273 0 274 0 104 -242
105 -243 263 -3 c209 -2 262 0 258 10 -3 7 -46 110 -97 228 -50 118 -109 256
-130 306 l-38 92 52 36 c260 179 425 528 402 851 -31 437 -321 783 -751 897
-76 20 -108 22 -642 25 l-563 4 0 -1225z m1071 720 c214 -46 373 -221 395
-438 8 -83 -8 -167 -50 -253 -42 -87 -89 -142 -167 -194 -111 -74 -151 -81
-475 -81 l-284 0 0 490 0 490 258 0 c182 0 276 -4 323 -14z"/>
<path d="M13040 4075 l0 -245 368 -2 367 -3 3 -977 2 -978 240 0 240 0 2 978
3 977 368 3 367 2 0 245 0 245 -980 0 -980 0 0 -245z"/>
<path d="M15260 3095 l0 -1225 840 0 840 0 0 245 0 245 -595 0 -595 0 0 245 0
245 400 0 400 0 0 245 0 245 -400 0 -400 0 0 245 0 245 595 0 595 0 0 245 0
245 -840 0 -840 0 0 -1225z"/>
<path d="M19467 4313 c-4 -3 -7 -555 -7 -1225 l0 -1218 245 0 245 0 2 488 3
487 488 3 487 2 0 -490 0 -490 245 0 245 0 0 1225 0 1225 -242 -2 -243 -3 -3
-487 -2 -488 -490 0 -490 0 0 490 0 490 -238 0 c-131 0 -242 -3 -245 -7z"/>
<path d="M24080 3095 l0 -1225 667 0 c582 0 675 2 732 16 318 79 544 352 558
674 9 191 -47 340 -173 467 l-71 71 40 31 c82 63 160 193 193 321 22 88 15
259 -16 350 -72 212 -225 379 -427 464 -125 52 -180 56 -869 56 l-634 0 0
-1225z m1280 724 c69 -15 129 -62 163 -129 58 -112 20 -248 -87 -315 l-49 -30
-409 -3 -408 -3 0 239 c0 131 3 242 7 245 11 12 728 8 783 -4z m42 -992 c58
-27 104 -72 128 -129 48 -111 8 -240 -94 -303 l-49 -30 -409 -3 -408 -3 0 239
c0 131 3 242 7 246 4 4 183 6 398 4 343 -3 394 -6 427 -21z"/>
<path d="M26417 4313 c-4 -3 -7 -555 -7 -1225 l0 -1218 840 0 840 0 0 245 0
245 -595 0 -595 0 2 243 3 242 403 3 402 2 0 245 0 245 -405 0 -405 0 2 243 3
242 593 3 592 2 0 245 0 245 -833 0 c-459 0 -837 -3 -840 -7z"/>
<path d="M28440 3095 l0 -1225 245 0 245 0 0 245 0 245 273 0 272 0 105 -245
105 -245 263 0 262 0 -13 32 c-8 18 -65 152 -127 298 -62 146 -116 275 -120
286 -7 19 -1 27 44 58 75 51 185 168 243 258 124 189 179 423 153 643 -54 455
-404 809 -855 864 -54 7 -289 11 -592 11 l-503 0 0 -1225z m1050 725 c209 -33
377 -204 410 -414 36 -231 -113 -467 -339 -536 -56 -18 -93 -20 -347 -20
l-284 0 0 490 0 490 248 0 c136 0 276 -5 312 -10z"/>
<path d="M30720 3095 l0 -1225 245 0 245 0 0 243 0 243 183 246 c100 136 184
247 187 247 3 1 125 -218 271 -486 l264 -488 279 -3 c259 -2 278 -1 272 15 -4
9 -171 316 -371 682 -200 367 -369 678 -375 692 -12 25 4 48 365 530 208 277
382 510 388 517 7 9 -48 12 -271 12 l-280 0 -453 -609 -454 -609 -3 609 -2
609 -245 0 -245 0 0 -1225z"/>
<path d="M32910 3095 l0 -1225 840 0 840 0 -2 243 -3 242 -592 3 -593 2 0 245
0 245 400 0 400 0 0 245 0 245 -400 0 -400 0 0 245 0 245 595 0 595 0 -2 243
-3 242 -837 3 -838 2 0 -1225z"/>
<path d="M34930 3095 l0 -1225 860 0 860 0 -2 243 -3 242 -612 3 -613 2 0 980
0 980 -245 0 -245 0 0 -1225z"/>
<path d="M36900 3095 l0 -1225 840 0 840 0 0 245 0 245 -595 0 -595 0 2 243 3
242 403 3 402 2 -2 243 -3 242 -403 3 -402 2 2 243 3 242 593 3 592 2 0 245 0
245 -840 0 -840 0 0 -1225z"/>
<path d="M38803 3873 c3 -422 5 -453 25 -532 90 -342 351 -606 700 -707 9 -3
12 -88 12 -384 l0 -380 245 0 245 0 0 384 0 384 30 6 c61 12 186 71 269 127
192 128 337 332 402 564 21 76 22 101 26 533 l4 452 -245 0 -246 0 0 -402 c0
-442 -2 -457 -61 -567 -69 -131 -206 -228 -356 -253 -242 -40 -490 128 -548
373 -12 51 -15 142 -15 457 l0 392 -246 0 -245 0 4 -447z"/>
<path d="M22631 3749 c-389 -45 -707 -316 -810 -689 -132 -474 95 -961 545
-1172 170 -79 370 -106 554 -74 52 9 99 21 103 25 5 5 -8 78 -29 163 l-37 155
-56 -14 c-75 -17 -211 -16 -291 3 -116 27 -205 79 -301 174 -103 102 -157 202
-185 339 -77 388 238 771 636 771 96 0 194 -24 290 -71 69 -34 101 -58 170
-128 135 -136 190 -269 190 -461 0 -148 6 -140 -116 -140 l-104 0 0 310 0 310
-160 0 -160 0 0 -36 c0 -30 -3 -35 -17 -29 -136 53 -326 13 -431 -92 -159
-159 -160 -471 -1 -634 99 -101 268 -146 402 -105 26 8 47 10 47 5 0 -6 156
-8 382 -7 l383 3 32 75 c58 136 68 189 67 360 -1 133 -4 169 -27 253 -14 53
-44 134 -67 179 -151 303 -421 489 -763 527 -108 12 -139 12 -246 0z m179
-864 c66 -34 81 -149 26 -203 -23 -24 -34 -27 -92 -27 -61 0 -67 2 -95 33 -50
56 -38 155 23 192 39 24 98 26 138 5z"/>
</g>
</svg>
